<svg xmlns="http://www.w3.org/2000/svg" xmlns:xlink="http://www.w3.org/1999/xlink" viewBox="0 0 980.59629 265.84622"><defs><style>.cls-1{fill:none;}.cls-2{fill:#242528;}.cls-3{fill:#2c3544;}.cls-4{fill:#5d8087;}.cls-5{fill:#8ab1a0;}.cls-6{clip-path:url(#clip-path);}.cls-7{fill:#d9ac48;}.cls-8{fill:#98bbab;}.cls-9{fill:url(#Stripes_Light_Green);}.cls-10{fill:url(#Stripes_Dark_Turqoise);}.cls-11{fill:url(#Stripes_Black_Turqoise);}.cls-12{fill:url(#Stripes_Black);}.cls-13{fill:#bf5f41;}.cls-14{fill:#fbef01;}.cls-15{fill:#074162;}.cls-16{fill:#074062;}.cls-17{fill:#38634e;}.cls-18{fill:#6d893a;}.cls-19{fill:#97a729;}.cls-20{fill:#cfd013;}.cls-21{fill:#5d8089;}.cls-22{fill:#89b0a2;}.cls-23{fill:#8ab1a2;}.cls-24{fill:url(#Stripes_Light_Green-5);}.cls-25{fill:url(#Stripes_Light_Green-7);}.cls-26{fill:url(#Stripes_Light_Green-9);}.cls-27{fill:url(#Stripes_Light_Green-11);}.cls-28{fill:url(#Stripes_Dark_Turqoise-5);}</style><clipPath id="clip-path" transform="translate(-18 -73.13542)"><circle class="cls-1" cx="140.70982" cy="196.16667" r="62.64273"/></clipPath><pattern id="Stripes_Light_Green" data-name="Stripes Light Green" width="560" height="125" patternTransform="translate(202.75891 -5.08057) scale(0.28091)" patternUnits="userSpaceOnUse" viewBox="0 0 560 125"><rect class="cls-1" width="560" height="125"/><rect class="cls-5" x="224.00007" y="122.00003" width="560" height="1"/><rect class="cls-5" x="-335.99993" y="122.00003" width="560" height="1"/><rect class="cls-5" x="112.00007" y="117.00003" width="560" height="1"/><rect class="cls-5" x="-447.99993" y="117.00003" width="560" height="1"/><rect class="cls-5" x="0.00007" y="112.00003" width="560" height="1"/><rect class="cls-5" x="448.00007" y="107.00003" width="560" height="1"/><rect class="cls-5" x="-111.99993" y="107.00003" width="560" height="1"/><rect class="cls-5" x="336.00007" y="102.00003" width="560" height="1"/><rect class="cls-5" x="-223.99993" y="102.00003" width="560" height="1"/><rect class="cls-5" x="224.00007" y="97.00003" width="560" height="1"/><rect class="cls-5" x="-335.99993" y="97.00003" width="560" height="1"/><rect class="cls-5" x="112.00007" y="92.00003" width="560" height="1"/><rect class="cls-5" x="-447.99993" y="92.00003" width="560" height="1"/><rect class="cls-5" x="0.00007" y="87.00003" width="560" height="1"/><rect class="cls-5" x="448.00007" y="82.00003" width="560" height="1"/><rect class="cls-5" x="-111.99993" y="82.00003" width="560" height="1"/><rect class="cls-5" x="336.00007" y="77.00003" width="560" height="1"/><rect class="cls-5" x="-223.99993" y="77.00003" width="560" height="1"/><rect class="cls-5" x="224.00007" y="72.00003" width="560" height="1"/><rect class="cls-5" x="-335.99993" y="72.00003" width="560" height="1"/><rect class="cls-5" x="112.00007" y="67.00003" width="560" height="1"/><rect class="cls-5" x="-447.99993" y="67.00003" width="560" height="1"/><rect class="cls-5" x="0.00007" y="62.00003" width="560" height="1"/><rect class="cls-5" x="448.00007" y="57.00003" width="560" height="1"/><rect class="cls-5" x="-111.99993" y="57.00003" width="560" height="1"/><rect class="cls-5" x="336.00007" y="52.00003" width="560" height="1"/><rect class="cls-5" x="-223.99993" y="52.00003" width="560" height="1"/><rect class="cls-5" x="224.00007" y="47.00003" width="560" height="1"/><rect class="cls-5" x="-335.99993" y="47.00003" width="560" height="1"/><rect class="cls-5" x="112.00007" y="42.00003" width="560" height="1"/><rect class="cls-5" x="-447.99993" y="42.00003" width="560" height="1"/><rect class="cls-5" x="0.00007" y="37.00003" width="560" height="1"/><rect class="cls-5" x="448.00007" y="32.00003" width="560" height="1"/><rect class="cls-5" x="-111.99993" y="32.00003" width="560" height="1"/><rect class="cls-5" x="336.00007" y="27.00003" width="560" height="1"/><rect class="cls-5" x="-223.99993" y="27.00003" width="560" height="1"/><rect class="cls-5" x="224.00007" y="22.00003" width="560" height="1"/><rect class="cls-5" x="-335.99993" y="22.00003" width="560" height="1"/><rect class="cls-5" x="112.00007" y="17.00003" width="560" height="1"/><rect class="cls-5" x="-447.99993" y="17.00003" width="560" height="1"/><rect class="cls-5" x="0.00007" y="12.00003" width="560" height="1"/><rect class="cls-5" x="448.00007" y="7.00003" width="560" height="1"/><rect class="cls-5" x="-111.99993" y="7.00003" width="560" height="1"/><rect class="cls-5" x="336.00007" y="2.00003" width="560" height="1"/><rect class="cls-5" x="-223.99993" y="2.00003" width="560" height="1"/></pattern><pattern id="Stripes_Dark_Turqoise" data-name="Stripes Dark Turqoise" width="560" height="50" patternTransform="translate(220.75891 25.91848) scale(0.28091)" patternUnits="userSpaceOnUse" viewBox="0 0 560 50"><rect class="cls-1" width="560" height="50"/><rect class="cls-4" x="280.00007" y="49.50003" width="560" height="1"/><rect class="cls-4" x="-279.99993" y="49.50003" width="560" height="1"/><rect class="cls-4" x="0.00007" y="44.50003" width="560" height="1"/><rect class="cls-4" x="280.00007" y="39.50003" width="560" height="1"/><rect class="cls-4" x="-279.99993" y="39.50003" width="560" height="1"/><rect class="cls-4" x="0.00007" y="34.50003" width="560" height="1"/><rect class="cls-4" x="280.00007" y="29.50003" width="560" height="1"/><rect class="cls-4" x="-279.99993" y="29.50003" width="560" height="1"/><rect class="cls-4" x="0.00007" y="24.50003" width="560" height="1"/><rect class="cls-4" x="280.00007" y="19.50003" width="560" height="1"/><rect class="cls-4" x="-279.99993" y="19.50003" width="560" height="1"/><rect class="cls-4" x="0.00007" y="14.50003" width="560" height="1"/><rect class="cls-4" x="280.00007" y="9.50003" width="560" height="1"/><rect class="cls-4" x="-279.99993" y="9.50003" width="560" height="1"/><rect class="cls-4" x="0.00007" y="4.50003" width="560" height="1"/><rect class="cls-4" x="280.00007" y="-0.49997" width="560" height="1"/><rect class="cls-4" x="-279.99993" y="-0.49997" width="560" height="1"/></pattern><pattern id="Stripes_Black_Turqoise" data-name="Stripes Black Turqoise" width="560" height="50" patternTransform="translate(220.75891 25.91848) scale(0.28091)" patternUnits="userSpaceOnUse" viewBox="0 0 560 50"><rect class="cls-1" width="560" height="50"/><rect class="cls-3" x="280.00007" y="49.50003" width="560" height="1"/><rect class="cls-3" x="-279.99993" y="49.50003" width="560" height="1"/><rect class="cls-3" x="0.00007" y="44.50003" width="560" height="1"/><rect class="cls-3" x="280.00007" y="39.50003" width="560" height="1"/><rect class="cls-3" x="-279.99993" y="39.50003" width="560" height="1"/><rect class="cls-3" x="0.00007" y="34.50003" width="560" height="1"/><rect class="cls-3" x="280.00007" y="29.50003" width="560" height="1"/><rect class="cls-3" x="-279.99993" y="29.50003" width="560" height="1"/><rect class="cls-3" x="0.00007" y="24.50003" width="560" height="1"/><rect class="cls-3" x="280.00007" y="19.50003" width="560" height="1"/><rect class="cls-3" x="-279.99993" y="19.50003" width="560" height="1"/><rect class="cls-3" x="0.00007" y="14.50003" width="560" height="1"/><rect class="cls-3" x="280.00007" y="9.50003" width="560" height="1"/><rect class="cls-3" x="-279.99993" y="9.50003" width="560" height="1"/><rect class="cls-3" x="0.00007" y="4.50003" width="560" height="1"/><rect class="cls-3" x="280.00007" y="-0.49997" width="560" height="1"/><rect class="cls-3" x="-279.99993" y="-0.49997" width="560" height="1"/></pattern><pattern id="Stripes_Black" data-name="Stripes Black" width="560" height="100" patternTransform="translate(220.75891 96.14576) scale(0.28091)" patternUnits="userSpaceOnUse" viewBox="0 0 560 100"><rect class="cls-1" width="560" height="100"/><rect class="cls-2" x="280.00007" y="99.50003" width="560" height="1"/><rect class="cls-2" x="-279.99993" y="99.50003" width="560" height="1"/><rect class="cls-2" x="140.00007" y="94.50003" width="560" height="1"/><rect class="cls-2" x="-419.99993" y="94.50003" width="560" height="1"/><rect class="cls-2" x="0.00007" y="89.50003" width="560" height="1"/><rect class="cls-2" x="420.00007" y="84.50003" width="560" height="1"/><rect class="cls-2" x="-139.99993" y="84.50003" width="560" height="1"/><rect class="cls-2" x="280.00007" y="79.50003" width="560" height="1"/><rect class="cls-2" x="-279.99993" y="79.50003" width="560" height="1"/><rect class="cls-2" x="140.00007" y="74.50003" width="560" height="1"/><rect class="cls-2" x="-419.99993" y="74.50003" width="560" height="1"/><rect class="cls-2" x="0.00007" y="69.50003" width="560" height="1"/><rect class="cls-2" x="420.00007" y="64.50003" width="560" height="1"/><rect class="cls-2" x="-139.99993" y="64.50003" width="560" height="1"/><rect class="cls-2" x="280.00007" y="59.50003" width="560" height="1"/><rect class="cls-2" x="-279.99993" y="59.50003" width="560" height="1"/><rect class="cls-2" x="140.00007" y="54.50003" width="560" height="1"/><rect class="cls-2" x="-419.99993" y="54.50003" width="560" height="1"/><rect class="cls-2" x="0.00007" y="49.50003" width="560" height="1"/><rect class="cls-2" x="420.00007" y="44.50003" width="560" height="1"/><rect class="cls-2" x="-139.99993" y="44.50003" width="560" height="1"/><rect class="cls-2" x="280.00007" y="39.50003" width="560" height="1"/><rect class="cls-2" x="-279.99993" y="39.50003" width="560" height="1"/><rect class="cls-2" x="140.00007" y="34.50003" width="560" height="1"/><rect class="cls-2" x="-419.99993" y="34.50003" width="560" height="1"/><rect class="cls-2" x="0.00007" y="29.50003" width="560" height="1"/><rect class="cls-2" x="420.00007" y="24.50003" width="560" height="1"/><rect class="cls-2" x="-139.99993" y="24.50003" width="560" height="1"/><rect class="cls-2" x="280.00007" y="19.50003" width="560" height="1"/><rect class="cls-2" x="-279.99993" y="19.50003" width="560" height="1"/><rect class="cls-2" x="140.00007" y="14.50003" width="560" height="1"/><rect class="cls-2" x="-419.99993" y="14.50003" width="560" height="1"/><rect class="cls-2" x="0.00007" y="9.50003" width="560" height="1"/><rect class="cls-2" x="420.00007" y="4.50003" width="560" height="1"/><rect class="cls-2" x="-139.99993" y="4.50003" width="560" height="1"/><rect class="cls-2" x="280.00007" y="-0.49997" width="560" height="1"/><rect class="cls-2" x="-279.99993" y="-0.49997" width="560" height="1"/></pattern><pattern id="Stripes_Light_Green-5" data-name="Stripes Light Green" width="560" height="125" patternTransform="translate(-17.1733 -0.17855) rotate(28.78196) scale(0.108)" patternUnits="userSpaceOnUse" viewBox="0 0 560 125"><rect class="cls-1" width="560" height="125"/><rect class="cls-5" x="224.00007" y="122.00003" width="560" height="1"/><rect class="cls-5" x="-335.99993" y="122.00003" width="560" height="1"/><rect class="cls-5" x="112.00007" y="117.00003" width="560" height="1"/><rect class="cls-5" x="-447.99993" y="117.00003" width="560" height="1"/><rect class="cls-5" x="0.00007" y="112.00003" width="560" height="1"/><rect class="cls-5" x="448.00007" y="107.00003" width="560" height="1"/><rect class="cls-5" x="-111.99993" y="107.00003" width="560" height="1"/><rect class="cls-5" x="336.00007" y="102.00003" width="560" height="1"/><rect class="cls-5" x="-223.99993" y="102.00003" width="560" height="1"/><rect class="cls-5" x="224.00007" y="97.00003" width="560" height="1"/><rect class="cls-5" x="-335.99993" y="97.00003" width="560" height="1"/><rect class="cls-5" x="112.00007" y="92.00003" width="560" height="1"/><rect class="cls-5" x="-447.99993" y="92.00003" width="560" height="1"/><rect class="cls-5" x="0.00007" y="87.00003" width="560" height="1"/><rect class="cls-5" x="448.00007" y="82.00003" width="560" height="1"/><rect class="cls-5" x="-111.99993" y="82.00003" width="560" height="1"/><rect class="cls-5" x="336.00007" y="77.00003" width="560" height="1"/><rect class="cls-5" x="-223.99993" y="77.00003" width="560" height="1"/><rect class="cls-5" x="224.00007" y="72.00003" width="560" height="1"/><rect class="cls-5" x="-335.99993" y="72.00003" width="560" height="1"/><rect class="cls-5" x="112.00007" y="67.00003" width="560" height="1"/><rect class="cls-5" x="-447.99993" y="67.00003" width="560" height="1"/><rect class="cls-5" x="0.00007" y="62.00003" width="560" height="1"/><rect class="cls-5" x="448.00007" y="57.00003" width="560" height="1"/><rect class="cls-5" x="-111.99993" y="57.00003" width="560" height="1"/><rect class="cls-5" x="336.00007" y="52.00003" width="560" height="1"/><rect class="cls-5" x="-223.99993" y="52.00003" width="560" height="1"/><rect class="cls-5" x="224.00007" y="47.00003" width="560" height="1"/><rect class="cls-5" x="-335.99993" y="47.00003" width="560" height="1"/><rect class="cls-5" x="112.00007" y="42.00003" width="560" height="1"/><rect class="cls-5" x="-447.99993" y="42.00003" width="560" height="1"/><rect class="cls-5" x="0.00007" y="37.00003" width="560" height="1"/><rect class="cls-5" x="448.00007" y="32.00003" width="560" height="1"/><rect class="cls-5" x="-111.99993" y="32.00003" width="560" height="1"/><rect class="cls-5" x="336.00007" y="27.00003" width="560" height="1"/><rect class="cls-5" x="-223.99993" y="27.00003" width="560" height="1"/><rect class="cls-5" x="224.00007" y="22.00003" width="560" height="1"/><rect class="cls-5" x="-335.99993" y="22.00003" width="560" height="1"/><rect class="cls-5" x="112.00007" y="17.00003" width="560" height="1"/><rect class="cls-5" x="-447.99993" y="17.00003" width="560" height="1"/><rect class="cls-5" x="0.00007" y="12.00003" width="560" height="1"/><rect class="cls-5" x="448.00007" y="7.00003" width="560" height="1"/><rect class="cls-5" x="-111.99993" y="7.00003" width="560" height="1"/><rect class="cls-5" x="336.00007" y="2.00003" width="560" height="1"/><rect class="cls-5" x="-223.99993" y="2.00003" width="560" height="1"/></pattern><pattern id="Stripes_Light_Green-7" data-name="Stripes Light Green" width="560" height="125" patternTransform="translate(104.20097 46.16966) scale(0.09861)" patternUnits="userSpaceOnUse" viewBox="0 0 560 125"><rect class="cls-1" width="560" height="125"/><rect class="cls-5" x="224.00007" y="122.00003" width="560" height="1"/><rect class="cls-5" x="-335.99993" y="122.00003" width="560" height="1"/><rect class="cls-5" x="112.00007" y="117.00003" width="560" height="1"/><rect class="cls-5" x="-447.99993" y="117.00003" width="560" height="1"/><rect class="cls-5" x="0.00007" y="112.00003" width="560" height="1"/><rect class="cls-5" x="448.00007" y="107.00003" width="560" height="1"/><rect class="cls-5" x="-111.99993" y="107.00003" width="560" height="1"/><rect class="cls-5" x="336.00007" y="102.00003" width="560" height="1"/><rect class="cls-5" x="-223.99993" y="102.00003" width="560" height="1"/><rect class="cls-5" x="224.00007" y="97.00003" width="560" height="1"/><rect class="cls-5" x="-335.99993" y="97.00003" width="560" height="1"/><rect class="cls-5" x="112.00007" y="92.00003" width="560" height="1"/><rect class="cls-5" x="-447.99993" y="92.00003" width="560" height="1"/><rect class="cls-5" x="0.00007" y="87.00003" width="560" height="1"/><rect class="cls-5" x="448.00007" y="82.00003" width="560" height="1"/><rect class="cls-5" x="-111.99993" y="82.00003" width="560" height="1"/><rect class="cls-5" x="336.00007" y="77.00003" width="560" height="1"/><rect class="cls-5" x="-223.99993" y="77.00003" width="560" height="1"/><rect class="cls-5" x="224.00007" y="72.00003" width="560" height="1"/><rect class="cls-5" x="-335.99993" y="72.00003" width="560" height="1"/><rect class="cls-5" x="112.00007" y="67.00003" width="560" height="1"/><rect class="cls-5" x="-447.99993" y="67.00003" width="560" height="1"/><rect class="cls-5" x="0.00007" y="62.00003" width="560" height="1"/><rect class="cls-5" x="448.00007" y="57.00003" width="560" height="1"/><rect class="cls-5" x="-111.99993" y="57.00003" width="560" height="1"/><rect class="cls-5" x="336.00007" y="52.00003" width="560" height="1"/><rect class="cls-5" x="-223.99993" y="52.00003" width="560" height="1"/><rect class="cls-5" x="224.00007" y="47.00003" width="560" height="1"/><rect class="cls-5" x="-335.99993" y="47.00003" width="560" height="1"/><rect class="cls-5" x="112.00007" y="42.00003" width="560" height="1"/><rect class="cls-5" x="-447.99993" y="42.00003" width="560" height="1"/><rect class="cls-5" x="0.00007" y="37.00003" width="560" height="1"/><rect class="cls-5" x="448.00007" y="32.00003" width="560" height="1"/><rect class="cls-5" x="-111.99993" y="32.00003" width="560" height="1"/><rect class="cls-5" x="336.00007" y="27.00003" width="560" height="1"/><rect class="cls-5" x="-223.99993" y="27.00003" width="560" height="1"/><rect class="cls-5" x="224.00007" y="22.00003" width="560" height="1"/><rect class="cls-5" x="-335.99993" y="22.00003" width="560" height="1"/><rect class="cls-5" x="112.00007" y="17.00003" width="560" height="1"/><rect class="cls-5" x="-447.99993" y="17.00003" width="560" height="1"/><rect class="cls-5" x="0.00007" y="12.00003" width="560" height="1"/><rect class="cls-5" x="448.00007" y="7.00003" width="560" height="1"/><rect class="cls-5" x="-111.99993" y="7.00003" width="560" height="1"/><rect class="cls-5" x="336.00007" y="2.00003" width="560" height="1"/><rect class="cls-5" x="-223.99993" y="2.00003" width="560" height="1"/></pattern><pattern id="Stripes_Light_Green-9" data-name="Stripes Light Green" width="560" height="125" patternTransform="translate(61.78355 46.49838) scale(0.05574)" patternUnits="userSpaceOnUse" viewBox="0 0 560 125"><rect class="cls-1" width="560" height="125"/><rect class="cls-5" x="224.00007" y="122.00003" width="560" height="1"/><rect class="cls-5" x="-335.99993" y="122.00003" width="560" height="1"/><rect class="cls-5" x="112.00007" y="117.00003" width="560" height="1"/><rect class="cls-5" x="-447.99993" y="117.00003" width="560" height="1"/><rect class="cls-5" x="0.00007" y="112.00003" width="560" height="1"/><rect class="cls-5" x="448.00007" y="107.00003" width="560" height="1"/><rect class="cls-5" x="-111.99993" y="107.00003" width="560" height="1"/><rect class="cls-5" x="336.00007" y="102.00003" width="560" height="1"/><rect class="cls-5" x="-223.99993" y="102.00003" width="560" height="1"/><rect class="cls-5" x="224.00007" y="97.00003" width="560" height="1"/><rect class="cls-5" x="-335.99993" y="97.00003" width="560" height="1"/><rect class="cls-5" x="112.00007" y="92.00003" width="560" height="1"/><rect class="cls-5" x="-447.99993" y="92.00003" width="560" height="1"/><rect class="cls-5" x="0.00007" y="87.00003" width="560" height="1"/><rect class="cls-5" x="448.00007" y="82.00003" width="560" height="1"/><rect class="cls-5" x="-111.99993" y="82.00003" width="560" height="1"/><rect class="cls-5" x="336.00007" y="77.00003" width="560" height="1"/><rect class="cls-5" x="-223.99993" y="77.00003" width="560" height="1"/><rect class="cls-5" x="224.00007" y="72.00003" width="560" height="1"/><rect class="cls-5" x="-335.99993" y="72.00003" width="560" height="1"/><rect class="cls-5" x="112.00007" y="67.00003" width="560" height="1"/><rect class="cls-5" x="-447.99993" y="67.00003" width="560" height="1"/><rect class="cls-5" x="0.00007" y="62.00003" width="560" height="1"/><rect class="cls-5" x="448.00007" y="57.00003" width="560" height="1"/><rect class="cls-5" x="-111.99993" y="57.00003" width="560" height="1"/><rect class="cls-5" x="336.00007" y="52.00003" width="560" height="1"/><rect class="cls-5" x="-223.99993" y="52.00003" width="560" height="1"/><rect class="cls-5" x="224.00007" y="47.00003" width="560" height="1"/><rect class="cls-5" x="-335.99993" y="47.00003" width="560" height="1"/><rect class="cls-5" x="112.00007" y="42.00003" width="560" height="1"/><rect class="cls-5" x="-447.99993" y="42.00003" width="560" height="1"/><rect class="cls-5" x="0.00007" y="37.00003" width="560" height="1"/><rect class="cls-5" x="448.00007" y="32.00003" width="560" height="1"/><rect class="cls-5" x="-111.99993" y="32.00003" width="560" height="1"/><rect class="cls-5" x="336.00007" y="27.00003" width="560" height="1"/><rect class="cls-5" x="-223.99993" y="27.00003" width="560" height="1"/><rect class="cls-5" x="224.00007" y="22.00003" width="560" height="1"/><rect class="cls-5" x="-335.99993" y="22.00003" width="560" height="1"/><rect class="cls-5" x="112.00007" y="17.00003" width="560" height="1"/><rect class="cls-5" x="-447.99993" y="17.00003" width="560" height="1"/><rect class="cls-5" x="0.00007" y="12.00003" width="560" height="1"/><rect class="cls-5" x="448.00007" y="7.00003" width="560" height="1"/><rect class="cls-5" x="-111.99993" y="7.00003" width="560" height="1"/><rect class="cls-5" x="336.00007" y="2.00003" width="560" height="1"/><rect class="cls-5" x="-223.99993" y="2.00003" width="560" height="1"/></pattern><pattern id="Stripes_Light_Green-11" data-name="Stripes Light Green" width="560" height="125" patternTransform="translate(168.73213 110.76494) scale(0.05266)" patternUnits="userSpaceOnUse" viewBox="0 0 560 125"><rect class="cls-1" width="560" height="125"/><rect class="cls-5" x="224.00007" y="122.00003" width="560" height="1"/><rect class="cls-5" x="-335.99993" y="122.00003" width="560" height="1"/><rect class="cls-5" x="112.00007" y="117.00003" width="560" height="1"/><rect class="cls-5" x="-447.99993" y="117.00003" width="560" height="1"/><rect class="cls-5" x="0.00007" y="112.00003" width="560" height="1"/><rect class="cls-5" x="448.00007" y="107.00003" width="560" height="1"/><rect class="cls-5" x="-111.99993" y="107.00003" width="560" height="1"/><rect class="cls-5" x="336.00007" y="102.00003" width="560" height="1"/><rect class="cls-5" x="-223.99993" y="102.00003" width="560" height="1"/><rect class="cls-5" x="224.00007" y="97.00003" width="560" height="1"/><rect class="cls-5" x="-335.99993" y="97.00003" width="560" height="1"/><rect class="cls-5" x="112.00007" y="92.00003" width="560" height="1"/><rect class="cls-5" x="-447.99993" y="92.00003" width="560" height="1"/><rect class="cls-5" x="0.00007" y="87.00003" width="560" height="1"/><rect class="cls-5" x="448.00007" y="82.00003" width="560" height="1"/><rect class="cls-5" x="-111.99993" y="82.00003" width="560" height="1"/><rect class="cls-5" x="336.00007" y="77.00003" width="560" height="1"/><rect class="cls-5" x="-223.99993" y="77.00003" width="560" height="1"/><rect class="cls-5" x="224.00007" y="72.00003" width="560" height="1"/><rect class="cls-5" x="-335.99993" y="72.00003" width="560" height="1"/><rect class="cls-5" x="112.00007" y="67.00003" width="560" height="1"/><rect class="cls-5" x="-447.99993" y="67.00003" width="560" height="1"/><rect class="cls-5" x="0.00007" y="62.00003" width="560" height="1"/><rect class="cls-5" x="448.00007" y="57.00003" width="560" height="1"/><rect class="cls-5" x="-111.99993" y="57.00003" width="560" height="1"/><rect class="cls-5" x="336.00007" y="52.00003" width="560" height="1"/><rect class="cls-5" x="-223.99993" y="52.00003" width="560" height="1"/><rect class="cls-5" x="224.00007" y="47.00003" width="560" height="1"/><rect class="cls-5" x="-335.99993" y="47.00003" width="560" height="1"/><rect class="cls-5" x="112.00007" y="42.00003" width="560" height="1"/><rect class="cls-5" x="-447.99993" y="42.00003" width="560" height="1"/><rect class="cls-5" x="0.00007" y="37.00003" width="560" height="1"/><rect class="cls-5" x="448.00007" y="32.00003" width="560" height="1"/><rect class="cls-5" x="-111.99993" y="32.00003" width="560" height="1"/><rect class="cls-5" x="336.00007" y="27.00003" width="560" height="1"/><rect class="cls-5" x="-223.99993" y="27.00003" width="560" height="1"/><rect class="cls-5" x="224.00007" y="22.00003" width="560" height="1"/><rect class="cls-5" x="-335.99993" y="22.00003" width="560" height="1"/><rect class="cls-5" x="112.00007" y="17.00003" width="560" height="1"/><rect class="cls-5" x="-447.99993" y="17.00003" width="560" height="1"/><rect class="cls-5" x="0.00007" y="12.00003" width="560" height="1"/><rect class="cls-5" x="448.00007" y="7.00003" width="560" height="1"/><rect class="cls-5" x="-111.99993" y="7.00003" width="560" height="1"/><rect class="cls-5" x="336.00007" y="2.00003" width="560" height="1"/><rect class="cls-5" x="-223.99993" y="2.00003" width="560" height="1"/></pattern><pattern id="Stripes_Dark_Turqoise-5" data-name="Stripes Dark Turqoise" width="560" height="50" patternTransform="translate(265.57089 160.71702) scale(0.06323)" patternUnits="userSpaceOnUse" viewBox="0 0 560 50"><rect class="cls-1" width="560" height="50"/><rect class="cls-4" x="280.00007" y="49.50003" width="560" height="1"/><rect class="cls-4" x="-279.99993" y="49.50003" width="560" height="1"/><rect class="cls-4" x="0.00007" y="44.50003" width="560" height="1"/><rect class="cls-4" x="280.00007" y="39.50003" width="560" height="1"/><rect class="cls-4" x="-279.99993" y="39.50003" width="560" height="1"/><rect class="cls-4" x="0.00007" y="34.50003" width="560" height="1"/><rect class="cls-4" x="280.00007" y="29.50003" width="560" height="1"/><rect class="cls-4" x="-279.99993" y="29.50003" width="560" height="1"/><rect class="cls-4" x="0.00007" y="24.50003" width="560" height="1"/><rect class="cls-4" x="280.00007" y="19.50003" width="560" height="1"/><rect class="cls-4" x="-279.99993" y="19.50003" width="560" height="1"/><rect class="cls-4" x="0.00007" y="14.50003" width="560" height="1"/><rect class="cls-4" x="280.00007" y="9.50003" width="560" height="1"/><rect class="cls-4" x="-279.99993" y="9.50003" width="560" height="1"/><rect class="cls-4" x="0.00007" y="4.50003" width="560" height="1"/><rect class="cls-4" x="280.00007" y="-0.49997" width="560" height="1"/><rect class="cls-4" x="-279.99993" y="-0.49997" width="560" height="1"/></pattern></defs><title>Error 500 Masalah</title><g id="Layer_3" data-name="Layer 3"><g class="cls-6"><rect class="cls-7" x="55.52344" y="48.73177" width="135.99219" height="144.84375"/><rect class="cls-8" x="49.86092" y="160.45285" width="187.92818" height="25.81207" transform="translate(50.36689 -112.01463) rotate(20.10828)"/><polygon class="cls-9" points="215.654 142.068 39.181 77.46 48.055 53.221 224.528 117.83 215.654 142.068"/><rect class="cls-8" x="32.9494" y="206.64507" width="187.92818" height="25.81207" transform="translate(65.21671 -103.38486) rotate(20.10828)"/><polygon class="cls-9" points="193.891 190.074 17.418 125.465 26.292 101.227 202.765 165.835 193.891 190.074"/><path class="cls-10" d="M138.19527,105.80215h0a3.6518,3.6518,0,0,1-4.68469,2.17374l-1.05515-.3863a3.65182,3.65182,0,0,0-4.68469,2.17374h0a3.65182,3.65182,0,0,0,2.17374,4.68469l11.079,4.05616a3.65182,3.65182,0,0,1,2.17374,4.6847h0a3.65181,3.65181,0,0,1-4.6847,2.17374l-10.81524-3.95958a3.65181,3.65181,0,0,0-4.68469,2.17374h0a3.65181,3.65181,0,0,0,2.17374,4.6847l8.44116,3.09041a3.65181,3.65181,0,0,1,2.17374,4.68469h0a3.65182,3.65182,0,0,1-4.68469,2.17374l-7.12224-2.60754a3.65182,3.65182,0,0,0-4.68469,2.17374h0a3.65181,3.65181,0,0,0,2.17374,4.68469l6.33087,2.31781a3.65182,3.65182,0,0,1,2.17374,4.68469h0a3.65181,3.65181,0,0,1-4.6847,2.17374l-3.42922-1.25548a3.65182,3.65182,0,0,0-4.6847,2.17374h0a3.65182,3.65182,0,0,0,2.17374,4.68469l11.079,4.05616a3.65182,3.65182,0,0,1,2.17374,4.6847h0a3.65181,3.65181,0,0,1-4.68469,2.17374l-9.76009-3.57328a3.65181,3.65181,0,0,0-4.6847,2.17374h0a3.65182,3.65182,0,0,0,2.17374,4.6847l4.22059,1.5452a3.65181,3.65181,0,0,1,2.17373,4.6847h0a3.6518,3.6518,0,0,1-4.68469,2.17374l-8.70495-3.187a3.6518,3.6518,0,0,0-4.68469,2.17374h0a3.65182,3.65182,0,0,0,2.17374,4.68469l10.02388,3.66986a3.65181,3.65181,0,0,1,2.17374,4.68469h0a3.65181,3.65181,0,0,1-4.68469,2.17374l-14.772-5.40821a3.65181,3.65181,0,0,0-4.6847,2.17374h0a3.65181,3.65181,0,0,0,2.17374,4.6847l10.55145,3.863a3.65181,3.65181,0,0,1,2.17374,4.68469h0a3.65182,3.65182,0,0,1-4.68469,2.17374l-5.012-1.83493a3.65181,3.65181,0,0,0-4.68469,2.17374h0a3.65181,3.65181,0,0,0,2.17374,4.6847l9.23252,3.38013a3.65182,3.65182,0,0,1,2.17374,4.6847h0a3.65181,3.65181,0,0,1-4.6847,2.17374l-10.02388-3.66986a3.65182,3.65182,0,0,0-4.68469,2.17374h0A3.6518,3.6518,0,0,0,91.0881,224.666l8.70495,3.187a3.65182,3.65182,0,0,1,2.17374,4.68469h0a3.65182,3.65182,0,0,1-4.68469,2.17374l-6.33088-2.31781a3.65181,3.65181,0,0,0-4.68469,2.17374h0a3.65181,3.65181,0,0,0,2.17374,4.68469l8.96873,3.28356a3.6518,3.6518,0,0,1,2.17374,4.68469h0A3.65182,3.65182,0,0,1,94.898,249.394l-11.87039-4.34589a3.65182,3.65182,0,0,0-4.68469,2.17374h0a3.65181,3.65181,0,0,0,2.17374,4.68469l6.33087,2.31781a3.65181,3.65181,0,0,1,2.17374,4.68469h0a3.65182,3.65182,0,0,1-4.68469,2.17374l-5.27573-1.93151a3.65182,3.65182,0,0,0-4.6847,2.17374h0a3.65182,3.65182,0,0,0,2.17374,4.68469l31.39056,11.49246a3.65181,3.65181,0,0,0,4.68469-2.17374l1.25548-3.42922,2.511-6.85844,2.511-6.85844,2.51095-6.85845,2.511-6.85844,2.51095-6.85844,2.511-6.85844,2.511-6.85844,2.511-6.85844,2.511-6.85844,2.511-6.85844,2.511-6.85844,2.511-6.85844,2.511-6.85844,2.511-6.85844,2.511-6.85844,2.511-6.85844,2.511-6.85844,2.511-6.85844,2.511-6.85844,2.511-6.85844,2.51095-6.85844,2.511-6.85844,1.25548-3.42922a3.65182,3.65182,0,0,0-2.17374-4.6847L142.88,103.62841A3.65181,3.65181,0,0,0,138.19527,105.80215Z" transform="translate(-18 -73.13542)"/><path class="cls-5" d="M139.0429,113.29192h0a3.6518,3.6518,0,0,1-4.68469,2.17374l-1.05515-.3863a3.65183,3.65183,0,0,0-4.6847,2.17374h0a3.65182,3.65182,0,0,0,2.17374,4.68469l11.079,4.05616a3.65182,3.65182,0,0,1,2.17374,4.6847h0a3.6518,3.6518,0,0,1-4.68469,2.17374l-10.81524-3.95958a3.65181,3.65181,0,0,0-4.68469,2.17374h0a3.65181,3.65181,0,0,0,2.17374,4.6847l8.44116,3.09041a3.65182,3.65182,0,0,1,2.17374,4.68469h0a3.65182,3.65182,0,0,1-4.6847,2.17374l-7.12223-2.60754a3.65182,3.65182,0,0,0-4.68469,2.17374h0A3.65182,3.65182,0,0,0,122.331,149.951l6.33088,2.31781a3.65182,3.65182,0,0,1,2.17374,4.6847h0a3.65181,3.65181,0,0,1-4.6847,2.17374l-3.42922-1.25548a3.65182,3.65182,0,0,0-4.6847,2.17374h0a3.65182,3.65182,0,0,0,2.17374,4.68469l11.079,4.05616a3.65183,3.65183,0,0,1,2.17374,4.6847h0a3.6518,3.6518,0,0,1-4.68469,2.17374l-9.7601-3.57328a3.65181,3.65181,0,0,0-4.68469,2.17374h0a3.65181,3.65181,0,0,0,2.17374,4.68469l4.22058,1.54521a3.6518,3.6518,0,0,1,2.17374,4.68469h0a3.65182,3.65182,0,0,1-4.68469,2.17374l-8.70495-3.187a3.65182,3.65182,0,0,0-4.6847,2.17374h0a3.65182,3.65182,0,0,0,2.17374,4.68469l10.02388,3.66986a3.65181,3.65181,0,0,1,2.17374,4.6847h0a3.65181,3.65181,0,0,1-4.68469,2.17374l-14.772-5.40821a3.65181,3.65181,0,0,0-4.68469,2.17374h0a3.65181,3.65181,0,0,0,2.17374,4.6847l10.55145,3.863a3.65182,3.65182,0,0,1,2.17374,4.68469h0a3.65182,3.65182,0,0,1-4.6847,2.17374L100.26,211.87013a3.65181,3.65181,0,0,0-4.68469,2.17374h0a3.65182,3.65182,0,0,0,2.17374,4.6847l9.23253,3.38013a3.65182,3.65182,0,0,1,2.17374,4.6847h0a3.65181,3.65181,0,0,1-4.68469,2.17374l-10.02388-3.66986A3.65182,3.65182,0,0,0,89.762,227.471h0a3.65182,3.65182,0,0,0,2.17374,4.68469l8.70495,3.187a3.65181,3.65181,0,0,1,2.17374,4.68469h0a3.65182,3.65182,0,0,1-4.68469,2.17374l-6.33088-2.31781a3.65182,3.65182,0,0,0-4.68469,2.17374h0a3.65181,3.65181,0,0,0,2.17374,4.68469l8.96873,3.28356a3.65181,3.65181,0,0,1,2.17374,4.68469h0a3.65182,3.65182,0,0,1-4.68469,2.17374l-11.87039-4.34589a3.65182,3.65182,0,0,0-4.68469,2.17374h0a3.65181,3.65181,0,0,0,2.17374,4.68469l6.33087,2.31781a3.65181,3.65181,0,0,1,2.17374,4.68469h0a3.65181,3.65181,0,0,1-4.68469,2.17374l-5.27574-1.93151a3.65182,3.65182,0,0,0-4.68469,2.17374h0a3.65181,3.65181,0,0,0,2.17374,4.68469L108.78812,284.992a3.65182,3.65182,0,0,0,4.68469-2.17374l1.25548-3.42922,2.511-6.85844,2.511-6.85844,2.511-6.85844,2.511-6.85844,2.51095-6.85844,2.511-6.85845,2.511-6.85844,2.511-6.85844,2.511-6.85844,2.511-6.85844,2.511-6.85844,2.511-6.85844,2.511-6.85844,2.511-6.85844,2.511-6.85844,2.511-6.85844,2.511-6.85844,2.511-6.85844,2.511-6.85844,2.511-6.85844,2.511-6.85844,2.511-6.85844,1.25548-3.42922a3.65182,3.65182,0,0,0-2.17374-4.6847l-25.32348-9.27122A3.6518,3.6518,0,0,0,139.0429,113.29192Z" transform="translate(-18 -73.13542)"/><path class="cls-4" d="M162.08448,112.45426h0a3.65183,3.65183,0,0,0,2.17374,4.6847l1.05516.3863a3.65182,3.65182,0,0,1,2.17374,4.68469h0a3.65182,3.65182,0,0,1-4.68469,2.17374l-11.079-4.05616a3.65181,3.65181,0,0,0-4.68469,2.17374h0a3.65181,3.65181,0,0,0,2.17374,4.6847l10.81524,3.95958a3.65182,3.65182,0,0,1,2.17374,4.6847h0a3.65181,3.65181,0,0,1-4.68469,2.17374l-8.44116-3.09041a3.65182,3.65182,0,0,0-4.6847,2.17374h0a3.65182,3.65182,0,0,0,2.17374,4.68469l7.12223,2.60754a3.65181,3.65181,0,0,1,2.17374,4.68469h0a3.65182,3.65182,0,0,1-4.68469,2.17374l-6.33088-2.31781a3.65182,3.65182,0,0,0-4.68469,2.17374h0a3.65181,3.65181,0,0,0,2.17374,4.68469l3.42922,1.25548a3.65181,3.65181,0,0,1,2.17374,4.68469h0a3.65181,3.65181,0,0,1-4.68469,2.17374l-11.079-4.05616a3.65181,3.65181,0,0,0-4.68469,2.17374h0a3.6518,3.6518,0,0,0,2.17374,4.68469l9.76009,3.57329a3.65181,3.65181,0,0,1,2.17374,4.68469h0a3.65182,3.65182,0,0,1-4.6847,2.17374l-4.22058-1.54521a3.65183,3.65183,0,0,0-4.6847,2.17374h0a3.65182,3.65182,0,0,0,2.17374,4.68469l8.70495,3.187a3.6518,3.6518,0,0,1,2.17374,4.68469h0a3.65182,3.65182,0,0,1-4.68469,2.17374L126.35,188.81537a3.65182,3.65182,0,0,0-4.6847,2.17374h0a3.65182,3.65182,0,0,0,2.17374,4.68469l14.772,5.40822a3.65181,3.65181,0,0,1,2.17374,4.68469h0a3.65182,3.65182,0,0,1-4.68469,2.17374l-10.55146-3.863a3.65181,3.65181,0,0,0-4.68469,2.17374h0a3.6518,3.6518,0,0,0,2.17374,4.68469l5.01194,1.83493a3.65182,3.65182,0,0,1,2.17374,4.68469h0a3.65181,3.65181,0,0,1-4.6847,2.17374l-9.23252-3.38013a3.6518,3.6518,0,0,0-4.68469,2.17373h0a3.65183,3.65183,0,0,0,2.17374,4.6847l10.02389,3.66986a3.65182,3.65182,0,0,1,2.17374,4.68469h0a3.65182,3.65182,0,0,1-4.68469,2.17374l-8.70495-3.187a3.65181,3.65181,0,0,0-4.68469,2.17374h0a3.65182,3.65182,0,0,0,2.17374,4.68469l6.33088,2.31781a3.65182,3.65182,0,0,1,2.17374,4.68469h0a3.65183,3.65183,0,0,1-4.6847,2.17374L104.94345,243.2a3.65182,3.65182,0,0,0-4.68469,2.17374h0a3.65181,3.65181,0,0,0,2.17374,4.68469l11.87038,4.34589a3.65181,3.65181,0,0,1,2.17374,4.68469h0a3.65182,3.65182,0,0,1-4.68469,2.17374l-6.33088-2.31781a3.65182,3.65182,0,0,0-4.68469,2.17374h0a3.65181,3.65181,0,0,0,2.17374,4.68469l5.27573,1.93151a3.65182,3.65182,0,0,1,2.17374,4.68469h0a3.65182,3.65182,0,0,0,2.17374,4.68469l23.74077,8.69178a3.65182,3.65182,0,0,0,4.68469-2.17374l1.25548-3.42923,2.51095-6.85844,2.511-6.85844,2.511-6.85844,2.51095-6.85844,2.511-6.85844,2.511-6.85844,2.511-6.85844,2.511-6.85844,2.51095-6.85844,2.511-6.85844,2.511-6.85844,2.51095-6.85844,2.511-6.85844,2.511-6.85844,2.511-6.85844,2.511-6.85844,2.511-6.85844,2.511-6.85844,2.511-6.85844,2.511-6.85844,2.511-6.85844,2.511-6.85844,1.25548-3.42923a3.65181,3.65181,0,0,0-2.17374-4.68469l-29.80784-10.913A3.65182,3.65182,0,0,0,162.08448,112.45426Z" transform="translate(-18 -73.13542)"/><path class="cls-11" d="M177.06059,184.05245l2.511-6.85844.7726-2.11029L151.064,164.36392a3.65223,3.65223,0,0,1-3.93816.95134l-8.44116-3.09041a3.65182,3.65182,0,1,0-2.51095,6.85844l7.12222,2.60753a3.64945,3.64945,0,0,1,2.3222,4.14077l30.3801,11.12251Z" transform="translate(-18 -73.13542)"/><path class="cls-11" d="M125.53873,219.62927l-9.23252-3.38013a3.65182,3.65182,0,0,0-2.51095,6.85844l10.02387,3.66986a3.65182,3.65182,0,0,1-2.511,6.85844l-8.70495-3.187a3.65182,3.65182,0,1,0-2.51095,6.85844l6.33086,2.31781a3.62749,3.62749,0,0,1,1.9359,5.19591l32.49039,11.89511,1.44863-3.95679,2.511-6.85844,2.511-6.85844,2.511-6.85844,1.06233-2.90165-30.90768-11.31566A3.64948,3.64948,0,0,1,125.53873,219.62927Z" transform="translate(-18 -73.13542)"/><path class="cls-10" d="M169.25459,159.05343l2.511-6.85844,1.35205-3.693-33.25038-12.17336c-.02534.08976-.05064.1796-.08325.26867a3.65182,3.65182,0,0,1-4.6847,2.17374l-11.079-4.05616a3.65182,3.65182,0,0,0-2.511,6.85844l9.76009,3.57328a3.65136,3.65136,0,0,1-.03083,6.869l35.7948,13.1049Z" transform="translate(-18 -73.13542)"/><path class="cls-3" d="M189.98515,106.51528h0A3.65181,3.65181,0,0,0,192.15889,111.2l1.05515.38631a3.65182,3.65182,0,0,1,2.17374,4.68469h0a3.65183,3.65183,0,0,1-4.6847,2.17374l-11.079-4.05617a3.65182,3.65182,0,0,0-4.6847,2.17374h0a3.65182,3.65182,0,0,0,2.17374,4.68469l10.81524,3.95959a3.65182,3.65182,0,0,1,2.17374,4.68469h0a3.65181,3.65181,0,0,1-4.6847,2.17374l-8.44116-3.09041a3.65182,3.65182,0,0,0-4.68469,2.17374h0a3.65182,3.65182,0,0,0,2.17374,4.68469l7.12224,2.60754a3.65182,3.65182,0,0,1,2.17374,4.68469h0a3.65182,3.65182,0,0,1-4.68469,2.17374l-6.33087-2.31781a3.65181,3.65181,0,0,0-4.6847,2.17374h0a3.65182,3.65182,0,0,0,2.17374,4.6847l3.42923,1.25548a3.65182,3.65182,0,0,1,2.17374,4.68469h0a3.65182,3.65182,0,0,1-4.68469,2.17374l-11.079-4.05616a3.65181,3.65181,0,0,0-4.68469,2.17374h0a3.65181,3.65181,0,0,0,2.17374,4.6847l9.76009,3.57328a3.65181,3.65181,0,0,1,2.17374,4.6847h0a3.65181,3.65181,0,0,1-4.68469,2.17374l-4.22059-1.5452a3.65181,3.65181,0,0,0-4.68469,2.17374h0a3.65181,3.65181,0,0,0,2.17374,4.6847l8.70495,3.187a3.65182,3.65182,0,0,1,2.17374,4.6847h0a3.65181,3.65181,0,0,1-4.68469,2.17374l-10.02388-3.66986a3.65183,3.65183,0,0,0-4.6847,2.17374h0a3.65182,3.65182,0,0,0,2.17374,4.68469l14.772,5.40822a3.65181,3.65181,0,0,1,2.17374,4.68469h0a3.65182,3.65182,0,0,1-4.68469,2.17374l-10.55146-3.863a3.65181,3.65181,0,0,0-4.68469,2.17374h0a3.65181,3.65181,0,0,0,2.17374,4.6847l5.01194,1.83493a3.65181,3.65181,0,0,1,2.17374,4.68469h0a3.65182,3.65182,0,0,1-4.68469,2.17374l-9.23253-3.38014a3.65182,3.65182,0,0,0-4.68469,2.17374h0a3.65181,3.65181,0,0,0,2.17374,4.68469l10.02388,3.66986a3.65183,3.65183,0,0,1,2.17374,4.6847h0a3.65181,3.65181,0,0,1-4.6847,2.17374l-8.705-3.187a3.65182,3.65182,0,0,0-4.68469,2.17374h0a3.65181,3.65181,0,0,0,2.17374,4.68469l6.33087,2.31781a3.65182,3.65182,0,0,1,2.17374,4.68469h0a3.65182,3.65182,0,0,1-4.6847,2.17374l-8.96873-3.28356a3.65182,3.65182,0,0,0-4.6847,2.17374h0a3.65182,3.65182,0,0,0,2.17374,4.6847l11.87039,4.34589a3.65182,3.65182,0,0,1,2.17374,4.68469h0a3.65182,3.65182,0,0,1-4.68469,2.17374l-6.33087-2.31781a3.65181,3.65181,0,0,0-4.6847,2.17374h0a3.65181,3.65181,0,0,0,2.17374,4.6847l5.27573,1.93151a3.65182,3.65182,0,0,1,2.17374,4.68469h0a3.65181,3.65181,0,0,0,2.17374,4.68469l23.74076,8.69177a3.65181,3.65181,0,0,0,4.68469-2.17374l1.25548-3.42922,2.511-6.85844,2.51095-6.85844,2.511-6.85844,2.511-6.85844,2.511-6.85844,2.511-6.85844,2.51095-6.85844,2.511-6.85844,2.511-6.85844,2.51095-6.85844,2.511-6.85844,2.511-6.85844,2.51095-6.85844,2.511-6.85844,2.511-6.85844,2.511-6.85844,2.511-6.85844,2.511-6.85845,2.511-6.85844,2.511-6.85844,2.511-6.85844,2.511-6.85844,1.25548-3.42922a3.65182,3.65182,0,0,0-2.17374-4.68469l-29.80785-10.913A3.65182,3.65182,0,0,0,189.98515,106.51528Z" transform="translate(-18 -73.13542)"/><path class="cls-12" d="M182.70969,239.962l2.511-6.85844,2.51095-6.85844,2.511-6.85844,2.511-6.85844.19315-.52757-26.931-9.85976a3.62992,3.62992,0,0,1-2.01486-.13937l-10.55144-3.863a3.65182,3.65182,0,1,0-2.511,6.85844l5.01194,1.83493a3.65182,3.65182,0,0,1-2.511,6.85844l-9.23251-3.38014a3.65182,3.65182,0,0,0-2.511,6.85844l10.02388,3.66986a3.65182,3.65182,0,0,1-2.511,6.85844l-8.70494-3.187a3.63925,3.63925,0,0,0-1.41583-.21921l43.525,15.935Z" transform="translate(-18 -73.13542)"/><path class="cls-2" d="M185.91024,167.058h0a3.6518,3.6518,0,0,1-4.68469,2.17374l-1.05515-.3863a3.65182,3.65182,0,0,0-4.68469,2.17374h0a3.65182,3.65182,0,0,0,2.17374,4.68469l11.079,4.05616a3.65182,3.65182,0,0,1,2.17374,4.6847h0a3.65181,3.65181,0,0,1-4.6847,2.17374l-10.81524-3.95958a3.6518,3.6518,0,0,0-4.68469,2.17374h0a3.65182,3.65182,0,0,0,2.17374,4.6847l8.44116,3.09041a3.65181,3.65181,0,0,1,2.17374,4.68469h0a3.65182,3.65182,0,0,1-4.68469,2.17374l-7.12224-2.60754a3.65182,3.65182,0,0,0-4.68469,2.17374h0a3.65181,3.65181,0,0,0,2.17374,4.68469l6.33087,2.31781a3.65182,3.65182,0,0,1,2.17374,4.68469h0a3.65181,3.65181,0,0,1-4.6847,2.17374l-3.42922-1.25548a3.65182,3.65182,0,0,0-4.6847,2.17374h0a3.65182,3.65182,0,0,0,2.17374,4.68469l11.079,4.05616a3.65182,3.65182,0,0,1,2.17374,4.6847h0a3.65181,3.65181,0,0,1-4.68469,2.17374l-9.76009-3.57328a3.65181,3.65181,0,0,0-4.6847,2.17374h0a3.65182,3.65182,0,0,0,2.17374,4.6847l4.22059,1.5452a3.65182,3.65182,0,0,1,2.17374,4.6847h0a3.65181,3.65181,0,0,1-4.68469,2.17374l-8.70495-3.187a3.6518,3.6518,0,0,0-4.68469,2.17374h0a3.65182,3.65182,0,0,0,2.17374,4.68469l10.02388,3.66986a3.65181,3.65181,0,0,1,2.17374,4.68469h0a3.65182,3.65182,0,0,1-4.68469,2.17374l-14.772-5.40822a3.65182,3.65182,0,0,0-4.6847,2.17374h0a3.65183,3.65183,0,0,0,2.17374,4.6847l10.55145,3.863a3.65181,3.65181,0,0,1,2.17374,4.68469h0a3.65182,3.65182,0,0,1-4.68469,2.17374l-5.012-1.83493A3.6518,3.6518,0,0,0,142.4426,267.81h0a3.65181,3.65181,0,0,0,2.17374,4.6847l9.23252,3.38013a3.65182,3.65182,0,0,1,2.17374,4.6847h0a3.65181,3.65181,0,0,1-4.6847,2.17374L141.314,279.06336a3.65182,3.65182,0,0,0-4.68469,2.17374h0a3.6518,3.6518,0,0,0,2.17374,4.68469l8.70495,3.187a3.65182,3.65182,0,0,1,2.17374,4.68469h0a3.65182,3.65182,0,0,1-4.68469,2.17374l-6.33088-2.31781a3.65181,3.65181,0,0,0-4.68469,2.17374h0a3.65181,3.65181,0,0,0,2.17374,4.6847l8.96874,3.28356a3.6518,3.6518,0,0,1,2.17373,4.68469h0a3.65182,3.65182,0,0,1-4.68469,2.17374L130.74262,306.304a3.65182,3.65182,0,0,0-4.68469,2.17374h0a3.65181,3.65181,0,0,0,2.17374,4.68469l6.33087,2.31781a3.65181,3.65181,0,0,1,2.17374,4.68469h0a3.65182,3.65182,0,0,1-4.68469,2.17374l-5.27573-1.93151a3.65182,3.65182,0,0,0-4.6847,2.17374h0a3.65182,3.65182,0,0,0,2.17374,4.68469l31.39056,11.49246a3.65181,3.65181,0,0,0,4.68469-2.17374l1.25548-3.42922,2.511-6.85845,2.511-6.85844,2.511-6.85844,2.511-6.85844,2.51095-6.85844,2.511-6.85844,2.511-6.85844,2.511-6.85844,2.511-6.85844,2.511-6.85844,2.511-6.85844,2.511-6.85844,2.51095-6.85844,2.511-6.85844,2.511-6.85844,2.51095-6.85844,2.511-6.85844,2.511-6.85844,2.511-6.85844,2.511-6.85844,2.51095-6.85844,2.511-6.85844,1.25548-3.42922a3.65182,3.65182,0,0,0-2.17374-4.6847l-25.32348-9.27122A3.65181,3.65181,0,0,0,185.91024,167.058Z" transform="translate(-18 -73.13542)"/></g><path class="cls-2" d="M139.86629,197.95184a506.73482,506.73482,0,0,0-59.17467-17.945c-.24922.89968-.48076,1.8006-.68847,2.70272C97.123,186.65609,116.6779,194.84688,138.12793,202.7s41.671,14.22471,57.292,22.265q.63581-1.23447,1.21937-2.50835A506.73467,506.73467,0,0,0,139.86629,197.95184Z" transform="translate(-18 -73.13542)"/><path class="cls-7" d="M85.31473,175.88587A62.642,62.642,0,0,1,163.951,137.99675c-.56373-.22486-1.13117-.44437-1.70485-.6544A62.64273,62.64273,0,1,0,119.17355,254.991c.57368.21,1.14871.4088,1.72437.60108A62.642,62.642,0,0,1,85.31473,175.88587Z" transform="translate(-18 -73.13542)"/><path class="cls-13" d="M202.65358,208.5124a618.61576,618.61576,0,0,0-57.678-24.13611,619.15821,619.15821,0,0,0-59.53391-18.78722c-19.33607-4.85048-32.15174-6.26968-33.32931-3.05334-1.18414,3.23447,9.62988,10.48221,27.68977,19.3239q.40092-1.57613.8597-3.15323c-7.37686-4.26479-11.3836-7.62666-10.72424-9.42763.6542-1.78682,5.80638-1.78186,14.07781-.31045,13.61284,2.42163,35.67814,8.81728,60.07593,17.74959,24.48467,8.96408,45.52717,18.36228,57.46433,25.30993,7.18645,4.18267,11.0733,7.47725,10.42288,9.25381-.65558,1.79061-5.82893,1.78162-14.13149.30068l-.00938.02014.11556-.00123-1.47956,2.93261-.01189.02554c19.4482,4.8906,32.34727,6.3292,33.52955,3.09989C231.167,224.44805,220.49983,217.27462,202.65358,208.5124Z" transform="translate(-18 -73.13542)"/><path class="cls-7" d="M204.31345,202.05225c-16.76023-7.4383-36.28953-15.32992-57.32623-23.03172s-41.04491-14.28532-58.64592-19.427C50.60266,148.56907,23.93344,144.175,21.9425,149.613s21.21116,19.30238,57.14691,35.251q.33291-1.501.71274-3.00446c-18.05989-8.84169-28.87391-16.08943-27.68977-19.3239,1.17757-3.21634,13.99324-1.79714,33.32931,3.05334a619.15821,619.15821,0,0,1,59.53391,18.78722,618.61576,618.61576,0,0,1,57.678,24.13611c17.84625,8.76222,28.51346,15.93565,27.33777,19.14688-1.18228,3.22931-14.08135,1.79071-33.52955-3.09989-.07559.1554-.15682.30559-.23319.46025l-1.16269,2.30449c37.73628,11.02339,64.40359,15.41705,66.39443,9.97922C263.4513,231.86528,240.2492,218.00092,204.31345,202.05225Z" transform="translate(-18 -73.13542)"/><g id="Layer_1" data-name="Layer 1"><circle class="cls-14" cx="834.50919" cy="81.06923" r="11.48159"/><rect class="cls-14" x="849.2226" y="124.50808" width="106.67096" height="22.96319" transform="translate(-10.08017 243.75942) rotate(-20.00004)"/><rect class="cls-14" x="932.70342" y="102.52782" width="56.88267" height="2.55147" rx="1.27573" transform="translate(4.46149 261.85669) rotate(-20.00007)"/><rect class="cls-14" x="916.67758" y="112.93331" width="46.67681" height="2.55147" rx="1.27573" transform="translate(-0.37164 255.25774) rotate(-20.00007)"/><rect class="cls-14" x="940.31567" y="107.40001" width="44.72568" height="2.55147" rx="1.27573" transform="translate(2.8876 262.6751) rotate(-20.00007)"/><rect class="cls-14" x="902.73477" y="119.83313" width="66.48818" height="2.55147" rx="1.27573" transform="translate(-2.97499 254.29307) rotate(-20.00007)"/><rect class="cls-14" x="936.42033" y="113.40151" width="49.37836" height="2.55147" rx="1.27573" transform="translate(0.74033 262.50041) rotate(-20.00007)"/><rect class="cls-14" x="921.3131" y="123.90966" width="36.77112" height="2.55147" rx="1.27573" transform="translate(-4.14492 255.81117) rotate(-20.00007)"/><rect class="cls-14" x="937.21839" y="119.63401" width="43.37491" height="2.55147" rx="1.27573" transform="translate(-1.52421 262.12257) rotate(-20.00007)"/><rect class="cls-14" x="924.9748" y="126.80554" width="43.37491" height="2.55147" rx="1.27573" transform="translate(-4.71541 258.36751) rotate(-20.00007)"/><rect class="cls-14" x="949.75623" y="119.24459" width="50.27887" height="2.55147" rx="1.27573" transform="translate(-0.42671 267.56795) rotate(-20.00007)"/><circle class="cls-15" cx="835.18534" cy="80.81512" r="8.55496"/><rect class="cls-16" x="852.06047" y="139.33325" width="35.56181" height="17.10993" transform="translate(-16.12271 233.28764) rotate(-20.00007)"/><rect class="cls-17" x="872.47777" y="130.17246" width="42.38341" height="1.9011" rx="0.95055" transform="translate(-8.95163 240.42629) rotate(-20.00007)"/><rect class="cls-17" x="860.53688" y="137.92562" width="34.779" height="1.9011" rx="0.95055" transform="translate(-12.5528 235.50939) rotate(-20.00007)"/><rect class="cls-17" x="878.14968" y="133.80274" width="33.32521" height="1.9011" rx="0.95055" transform="translate(-10.12434 241.03609) rotate(-20.00007)"/><rect class="cls-17" x="850.14806" y="143.06669" width="49.5405" height="1.9011" rx="0.95055" transform="translate(-14.49257 234.79061) rotate(-20.00007)"/><rect class="cls-17" x="875.24725" y="138.27447" width="36.79193" height="1.9011" rx="0.95055" transform="translate(-11.72427 240.90592) rotate(-20.00007)"/><rect class="cls-17" x="863.99082" y="146.10412" width="27.39825" height="1.9011" rx="0.95055" transform="translate(-15.36429 235.92175) rotate(-20.00007)"/><rect class="cls-17" x="875.84188" y="142.91832" width="32.31875" height="1.9011" rx="0.95055" transform="translate(-13.41159 240.6244) rotate(-20.00007)"/><rect class="cls-17" x="866.71916" y="148.26184" width="32.31875" height="1.9011" rx="0.95055" transform="translate(-15.78936 237.82649) rotate(-20.00007)"/><rect class="cls-17" x="885.18386" y="142.62817" width="37.46291" height="1.9011" rx="0.95055" transform="translate(-12.59384 244.68176) rotate(-20.00007)"/><rect class="cls-18" x="880.70702" y="127.17725" width="42.38341" height="1.9011" rx="0.95055" transform="translate(-7.43092 243.06023) rotate(-20.00007)"/><rect class="cls-18" x="868.76613" y="134.93041" width="34.779" height="1.9011" rx="0.95055" transform="translate(-11.03209 238.14333) rotate(-20.00007)"/><rect class="cls-18" x="886.37893" y="130.80753" width="33.32521" height="1.9011" rx="0.95055" transform="translate(-8.60363 243.67003) rotate(-20.00007)"/><rect class="cls-18" x="858.37731" y="140.07148" width="49.5405" height="1.9011" rx="0.95055" transform="translate(-12.97186 237.42456) rotate(-20.00007)"/><rect class="cls-18" x="883.4765" y="135.27926" width="36.79193" height="1.9011" rx="0.95055" transform="translate(-10.20356 243.53987) rotate(-20.00007)"/><rect class="cls-18" x="872.22007" y="143.10891" width="27.39825" height="1.9011" rx="0.95055" transform="translate(-13.84357 238.5557) rotate(-20.00007)"/><rect class="cls-18" x="884.07113" y="139.92311" width="32.31875" height="1.9011" rx="0.95055" transform="translate(-11.89088 243.25834) rotate(-20.00007)"/><rect class="cls-18" x="874.94841" y="145.26663" width="32.31875" height="1.9011" rx="0.95055" transform="translate(-14.26865 240.46043) rotate(-20.00007)"/><rect class="cls-18" x="893.41311" y="139.63295" width="37.46291" height="1.9011" rx="0.95055" transform="translate(-11.07313 247.31571) rotate(-20.00007)"/><rect class="cls-19" x="889.62204" y="123.93244" width="42.38341" height="1.9011" rx="0.95055" transform="translate(-5.78348 245.91367) rotate(-20.00007)"/><rect class="cls-19" x="877.68115" y="131.68559" width="34.779" height="1.9011" rx="0.95055" transform="translate(-9.38465 240.99677) rotate(-20.00007)"/><rect class="cls-19" x="895.29395" y="127.56272" width="33.32521" height="1.9011" rx="0.95055" transform="translate(-6.95619 246.52347) rotate(-20.00007)"/><rect class="cls-19" x="867.29233" y="136.82667" width="49.5405" height="1.9011" rx="0.95055" transform="translate(-11.32442 240.278) rotate(-20.00007)"/><rect class="cls-19" x="892.39152" y="132.03445" width="36.79193" height="1.9011" rx="0.95055" transform="translate(-8.55612 246.3933) rotate(-20.00007)"/><rect class="cls-19" x="881.13509" y="139.8641" width="27.39825" height="1.9011" rx="0.95055" transform="translate(-12.19613 241.40914) rotate(-20.00007)"/><rect class="cls-19" x="892.98615" y="136.6783" width="32.31875" height="1.9011" rx="0.95055" transform="translate(-10.24344 246.11178) rotate(-20.00007)"/><rect class="cls-19" x="883.86343" y="142.02182" width="32.31875" height="1.9011" rx="0.95055" transform="translate(-12.62121 243.31387) rotate(-20.00007)"/><rect class="cls-19" x="902.32813" y="136.38814" width="37.46291" height="1.9011" rx="0.95055" transform="translate(-9.42569 250.16914) rotate(-20.00007)"/><rect class="cls-20" x="899.9086" y="120.18843" width="42.38341" height="1.9011" rx="0.95055" transform="translate(-3.88258 249.2061) rotate(-20.00007)"/><rect class="cls-20" x="887.96771" y="127.94158" width="34.779" height="1.9011" rx="0.95055" transform="translate(-7.48376 244.2892) rotate(-20.00007)"/><rect class="cls-20" x="905.58051" y="123.8187" width="33.32521" height="1.9011" rx="0.95055" transform="translate(-5.0553 249.8159) rotate(-20.00007)"/><rect class="cls-20" x="877.57889" y="133.08266" width="49.5405" height="1.9011" rx="0.95055" transform="matrix(0.93969, -0.34202, 0.34202, 0.93969, -9.42353, 243.57043)"/><rect class="cls-20" x="902.67808" y="128.29044" width="36.79193" height="1.9011" rx="0.95055" transform="translate(-6.65523 249.68573) rotate(-20.00007)"/><rect class="cls-20" x="891.42165" y="136.12009" width="27.39825" height="1.9011" rx="0.95055" transform="translate(-10.29524 244.70157) rotate(-20.00007)"/><rect class="cls-20" x="903.27272" y="132.93428" width="32.31875" height="1.9011" rx="0.95055" transform="translate(-8.34255 249.40421) rotate(-20.00007)"/><rect class="cls-20" x="894.14999" y="138.27781" width="32.31875" height="1.9011" rx="0.95055" transform="translate(-10.72032 246.6063) rotate(-20.00007)"/><path class="cls-20" d="M913.60132,132.64249h35.508a.97744.97744,0,0,1,.97744.97744v0a.97745.97745,0,0,1-.97745.97745h-35.508a.97744.97744,0,0,1-.97744-.97744v0a.97745.97745,0,0,1,.97745-.97745Z" transform="translate(-7.53287 253.46627) rotate(-20.00007)"/><circle class="cls-14" cx="748.598" cy="149.66672" r="15.93761"/><rect class="cls-14" x="762.03587" y="181.5803" width="148.07001" height="31.87521" rx="0.57027" transform="translate(-35.13379 224.73004) rotate(-20.00004)"/><rect class="cls-14" x="877.91565" y="151.0695" width="78.95886" height="3.54169" rx="1.77084" transform="translate(-14.94858 249.85067) rotate(-20.00007)"/><rect class="cls-14" x="855.67016" y="165.51337" width="64.7921" height="3.54169" rx="1.77084" transform="translate(-21.65745 240.69066) rotate(-20.00007)"/><rect class="cls-14" x="888.48221" y="157.83258" width="62.08375" height="3.54169" rx="1.77084" transform="translate(-17.1333 250.98671) rotate(-20.00007)"/><rect class="cls-14" x="836.31614" y="175.09101" width="92.29228" height="3.54169" rx="1.77084" transform="translate(-25.27117 239.3516) rotate(-20.00007)"/><rect class="cls-14" x="883.07508" y="166.16327" width="68.54212" height="3.54169" rx="1.77084" transform="translate(-20.11392 250.74421) rotate(-20.00007)"/><rect class="cls-14" x="862.10474" y="180.74964" width="51.04201" height="3.54169" rx="1.77084" transform="translate(-26.89514 241.45887) rotate(-20.00007)"/><rect class="cls-14" x="884.18287" y="174.8146" width="60.20873" height="3.54169" rx="1.77084" transform="translate(-23.25734 250.21974) rotate(-20.00007)"/><rect class="cls-14" x="867.18755" y="184.76941" width="60.20873" height="3.54169" rx="1.77084" transform="translate(-27.68704 245.00733) rotate(-20.00007)"/><rect class="cls-14" x="901.58666" y="174.27406" width="69.79213" height="3.54169" rx="1.77084" transform="translate(-21.7339 257.77847) rotate(-20.00007)"/><circle class="cls-15" cx="749.53656" cy="149.31398" r="11.87515"/><rect class="cls-16" x="765.97512" y="202.15914" width="49.36336" height="23.7503" transform="translate(-43.52151 210.19396) rotate(-20.00007)"/><rect class="cls-17" x="794.31639" y="189.44304" width="58.83243" height="2.63892" rx="1.31946" transform="translate(-33.56734 220.10312) rotate(-20.00007)"/><rect class="cls-17" x="777.74123" y="200.2052" width="48.27675" height="2.63892" rx="1.31946" transform="translate(-38.56613 213.27797) rotate(-20.00007)"/><rect class="cls-17" x="802.18956" y="194.48223" width="46.25875" height="2.63892" rx="1.31946" transform="translate(-35.19518 220.94958) rotate(-20.00007)"/><rect class="cls-17" x="763.3205" y="207.34153" width="68.7672" height="2.63892" rx="1.31946" transform="translate(-41.25873 212.28023) rotate(-20.00007)"/><rect class="cls-17" x="798.1607" y="200.68944" width="51.0709" height="2.63892" rx="1.31946" transform="translate(-37.41605 220.7689) rotate(-20.00007)"/><rect class="cls-17" x="782.53564" y="211.55778" width="38.03152" height="2.63892" rx="1.31946" transform="translate(-42.46875 213.85037) rotate(-20.00007)"/><rect class="cls-17" x="798.98612" y="207.13557" width="44.86167" height="2.63892" rx="1.31946" transform="translate(-39.75821 220.37811) rotate(-20.00007)"/><rect class="cls-17" x="786.32286" y="214.55292" width="44.86167" height="2.63892" rx="1.31946" transform="translate(-43.0588 216.49433) rotate(-20.00007)"/><rect class="cls-17" x="811.95372" y="206.73281" width="52.00228" height="2.63892" rx="1.31946" transform="matrix(0.93969, -0.34202, 0.34202, 0.93969, -38.6231, 226.01014)"/><rect class="cls-18" x="805.73942" y="185.28539" width="58.83243" height="2.63892" rx="1.31946" transform="translate(-31.45644 223.7593) rotate(-20.00007)"/><rect class="cls-18" x="789.16425" y="196.04754" width="48.27675" height="2.63892" rx="1.31946" transform="translate(-36.45523 216.93415) rotate(-20.00007)"/><rect class="cls-18" x="813.61259" y="190.32457" width="46.25875" height="2.63892" rx="1.31946" transform="translate(-33.08428 224.60576) rotate(-20.00007)"/><rect class="cls-18" x="774.74353" y="203.18387" width="68.7672" height="2.63892" rx="1.31946" transform="translate(-39.14782 215.93641) rotate(-20.00007)"/><rect class="cls-18" x="809.58373" y="196.53179" width="51.0709" height="2.63892" rx="1.31946" transform="translate(-35.30514 224.42507) rotate(-20.00007)"/><rect class="cls-18" x="793.95867" y="207.40013" width="38.03152" height="2.63892" rx="1.31946" transform="translate(-40.35785 217.50655) rotate(-20.00007)"/><rect class="cls-18" x="810.40914" y="202.97792" width="44.86167" height="2.63892" rx="1.31946" transform="translate(-37.64731 224.03429) rotate(-20.00007)"/><rect class="cls-18" x="797.74588" y="210.39527" width="44.86167" height="2.63892" rx="1.31946" transform="translate(-40.9479 220.15051) rotate(-20.00007)"/><rect class="cls-18" x="823.37675" y="202.57516" width="52.00228" height="2.63892" rx="1.31946" transform="matrix(0.93969, -0.34202, 0.34202, 0.93969, -36.51219, 229.66632)"/><rect class="cls-19" x="818.11436" y="180.78126" width="58.83243" height="2.63892" rx="1.09485" transform="translate(-29.16963 227.72016) rotate(-20.00007)"/><rect class="cls-19" x="801.5392" y="191.54342" width="48.27675" height="2.63892" rx="1.09485" transform="translate(-34.16842 220.89501) rotate(-20.00007)"/><rect class="cls-19" x="825.98754" y="185.82045" width="46.25875" height="2.63892" rx="1.09485" transform="translate(-30.79747 228.56662) rotate(-20.00007)"/><rect class="cls-19" x="787.11847" y="198.67975" width="68.7672" height="2.63892" rx="1.09485" transform="translate(-36.86101 219.89727) rotate(-20.00007)"/><rect class="cls-19" x="821.95867" y="192.02766" width="51.0709" height="2.63892" rx="1.09485" transform="translate(-33.01833 228.38593) rotate(-20.00007)"/><rect class="cls-19" x="806.33361" y="202.89601" width="38.03152" height="2.63892" rx="1.09485" transform="translate(-38.07104 221.46741) rotate(-20.00007)"/><rect class="cls-19" x="822.78409" y="198.47379" width="44.86167" height="2.63892" rx="1.09485" transform="translate(-35.3605 227.99515) rotate(-20.00007)"/><rect class="cls-19" x="810.12083" y="205.89114" width="44.86167" height="2.63892" rx="1.09485" transform="translate(-38.66108 224.11137) rotate(-20.00007)"/><rect class="cls-19" x="835.75169" y="198.07103" width="52.00228" height="2.63892" rx="1.09485" transform="translate(-34.22538 233.62718) rotate(-20.00007)"/><rect class="cls-20" x="832.39314" y="175.5842" width="58.83243" height="2.63892" rx="1.31946" transform="translate(-26.531 232.29038) rotate(-20.00007)"/><rect class="cls-20" x="815.81798" y="186.34635" width="48.27675" height="2.63892" rx="1.31946" transform="translate(-31.52979 225.46523) rotate(-20.00007)"/><rect class="cls-20" x="840.26632" y="180.62338" width="46.25875" height="2.63892" rx="1.31946" transform="translate(-28.15884 233.13684) rotate(-20.00007)"/><rect class="cls-20" x="801.39726" y="193.48268" width="68.7672" height="2.63892" rx="1.31946" transform="translate(-34.22238 224.4675) rotate(-20.00007)"/><rect class="cls-20" x="836.23745" y="186.8306" width="51.0709" height="2.63892" rx="1.31946" transform="translate(-30.3797 232.95616) rotate(-20.00007)"/><rect class="cls-20" x="820.6124" y="197.69894" width="38.03152" height="2.63892" rx="1.31946" transform="translate(-35.43241 226.03763) rotate(-20.00007)"/><rect class="cls-20" x="837.06287" y="193.27673" width="44.86167" height="2.63892" rx="1.31946" transform="matrix(0.93969, -0.34202, 0.34202, 0.93969, -32.72187, 232.56538)"/><rect class="cls-20" x="824.39961" y="200.69408" width="44.86167" height="2.63892" rx="1.31946" transform="translate(-36.02245 228.6816) rotate(-20.00007)"/><rect class="cls-20" x="850.04321" y="192.87168" width="52.00228" height="2.71359" rx="1.35679" transform="translate(-31.59797 238.20391) rotate(-20.00007)"/><circle class="cls-14" cx="822.51209" cy="163.25985" r="8.08802"/><rect class="cls-14" x="838.1969" y="215.476" width="75.14261" height="16.17604" transform="translate(-41.64805 239.87813) rotate(-20.00004)"/><rect class="cls-14" x="897.0036" y="199.99237" width="40.07006" height="1.79734" rx="0.89867" transform="translate(-31.40444 252.62659) rotate(-20.00007)"/><rect class="cls-14" x="885.71445" y="207.32235" width="32.88071" height="1.79734" rx="0.89867" transform="translate(-34.80905 247.97807) rotate(-20.00007)"/><rect class="cls-14" x="902.36592" y="203.4245" width="31.50628" height="1.79734" rx="0.89867" transform="translate(-32.51314 253.20311) rotate(-20.00007)"/><rect class="cls-14" x="875.89267" y="212.18281" width="46.83651" height="1.79734" rx="0.89867" transform="translate(-36.64295 247.29852) rotate(-20.00007)"/><rect class="cls-14" x="899.62191" y="207.65216" width="34.78378" height="1.79734" rx="0.89867" transform="translate(-34.02574 253.08005) rotate(-20.00007)"/><rect class="cls-14" x="888.97987" y="215.05446" width="25.90281" height="1.79734" rx="0.89867" transform="translate(-37.46708 248.36792) rotate(-20.00007)"/><rect class="cls-14" x="900.18409" y="212.04254" width="30.55475" height="1.79734" rx="0.89867" transform="matrix(0.93969, -0.34202, 0.34202, 0.93969, -35.62097, 252.81389)"/><rect class="cls-14" x="891.5593" y="217.09441" width="30.55475" height="1.79734" rx="0.89867" transform="translate(-37.86895 250.16869) rotate(-20.00007)"/><rect class="cls-14" x="909.01617" y="211.76822" width="35.41813" height="1.79734" rx="0.89867" transform="translate(-34.84785 256.6498) rotate(-20.00007)"/><circle class="cls-15" cx="822.98839" cy="163.08084" r="6.0264"/><rect class="cls-16" x="840.19599" y="225.91935" width="25.05093" height="12.05281" transform="translate(-45.90464 232.50159) rotate(-20.00007)"/><rect class="cls-17" x="854.57863" y="219.46618" width="29.8563" height="1.3392" rx="0.6696" transform="translate(-40.85309 237.5303) rotate(-20.00007)"/><rect class="cls-17" x="846.16706" y="224.92777" width="24.4995" height="1.3392" rx="0.6696" transform="matrix(0.93969, -0.34202, 0.34202, 0.93969, -43.38988, 234.06667)"/><rect class="cls-17" x="858.57411" y="222.02347" width="23.4754" height="1.3392" rx="0.6696" transform="translate(-41.67919 237.95986) rotate(-20.00007)"/><rect class="cls-17" x="838.84882" y="228.54931" width="34.898" height="1.3392" rx="0.6696" transform="translate(-44.75632 233.56034) rotate(-20.00007)"/><rect class="cls-17" x="856.52954" y="225.17351" width="25.91747" height="1.3392" rx="0.6696" transform="matrix(0.93969, -0.34202, 0.34202, 0.93969, -42.80623, 237.86816)"/><rect class="cls-17" x="848.60013" y="230.68898" width="19.30025" height="1.3392" rx="0.6696" transform="translate(-45.37038 234.35715) rotate(-20.00007)"/><rect class="cls-17" x="856.94842" y="228.4448" width="22.76641" height="1.3392" rx="0.6696" transform="translate(-43.99484 237.66985) rotate(-20.00007)"/><rect class="cls-17" x="850.52207" y="232.20895" width="22.76641" height="1.3392" rx="0.6696" transform="translate(-45.66982 235.69891) rotate(-20.00007)"/><rect class="cls-17" x="863.52922" y="228.2404" width="26.39013" height="1.3392" rx="0.6696" transform="translate(-43.41879 240.52799) rotate(-20.00007)"/><rect class="cls-18" x="860.37559" y="217.35626" width="29.8563" height="1.3392" rx="0.6696" transform="translate(-39.78185 239.38573) rotate(-20.00007)"/><rect class="cls-18" x="851.96402" y="222.81784" width="24.4995" height="1.3392" rx="0.6696" transform="translate(-42.31864 235.9221) rotate(-20.00007)"/><rect class="cls-18" x="864.37107" y="219.91355" width="23.4754" height="1.3392" rx="0.6696" transform="translate(-40.60794 239.8153) rotate(-20.00007)"/><rect class="cls-18" x="844.64578" y="226.43939" width="34.898" height="1.3392" rx="0.6696" transform="translate(-43.68507 235.41578) rotate(-20.00007)"/><rect class="cls-18" x="862.3265" y="223.06358" width="25.91747" height="1.3392" rx="0.6696" transform="translate(-41.73499 239.7236) rotate(-20.00007)"/><rect class="cls-18" x="854.39709" y="228.57905" width="19.30025" height="1.3392" rx="0.6696" transform="translate(-44.29914 236.21259) rotate(-20.00007)"/><rect class="cls-18" x="862.74538" y="226.33487" width="22.76641" height="1.3392" rx="0.6696" transform="translate(-42.92359 239.52529) rotate(-20.00007)"/><rect class="cls-18" x="856.31903" y="230.09903" width="22.76641" height="1.3392" rx="0.6696" transform="translate(-44.59858 237.55435) rotate(-20.00007)"/><rect class="cls-18" x="869.32618" y="226.13047" width="26.39013" height="1.3392" rx="0.6696" transform="translate(-42.34754 242.38343) rotate(-20.00007)"/><rect class="cls-19" x="866.65563" y="215.0705" width="29.8563" height="1.3392" rx="0.6696" transform="translate(-38.62134 241.39579) rotate(-20.00007)"/><rect class="cls-19" x="858.24406" y="220.53209" width="24.4995" height="1.3392" rx="0.6696" transform="translate(-41.15812 237.93216) rotate(-20.00007)"/><rect class="cls-19" x="870.65111" y="217.62779" width="23.4754" height="1.3392" rx="0.6696" transform="matrix(0.93969, -0.34202, 0.34202, 0.93969, -39.44743, 241.82536)"/><rect class="cls-19" x="850.92582" y="224.15363" width="34.898" height="1.3392" rx="0.6696" transform="translate(-42.52456 237.42583) rotate(-20.00007)"/><rect class="cls-19" x="868.60654" y="220.77783" width="25.91747" height="1.3392" rx="0.6696" transform="translate(-40.57448 241.73366) rotate(-20.00007)"/><rect class="cls-19" x="860.67713" y="226.2933" width="19.30025" height="1.3392" rx="0.6696" transform="translate(-43.13863 238.22265) rotate(-20.00007)"/><rect class="cls-19" x="869.02542" y="224.04911" width="22.76641" height="1.3392" rx="0.6696" transform="translate(-41.76308 241.53535) rotate(-20.00007)"/><rect class="cls-19" x="862.59907" y="227.81327" width="22.76641" height="1.3392" rx="0.6696" transform="translate(-43.43806 239.56441) rotate(-20.00007)"/><rect class="cls-19" x="875.60622" y="223.84472" width="26.39013" height="1.3392" rx="0.6696" transform="translate(-41.18703 244.39349) rotate(-20.00007)"/><rect class="cls-20" x="873.90183" y="212.43309" width="29.8563" height="1.3392" rx="0.6696" transform="translate(-37.28228 243.71509) rotate(-20.00007)"/><rect class="cls-20" x="865.49026" y="217.89468" width="24.4995" height="1.3392" rx="0.6696" transform="matrix(0.93969, -0.34202, 0.34202, 0.93969, -39.81907, 240.25146)"/><rect class="cls-20" x="877.89731" y="214.99038" width="23.4754" height="1.3392" rx="0.6696" transform="translate(-38.10838 244.14465) rotate(-20.00007)"/><rect class="cls-20" x="858.17203" y="221.51622" width="34.898" height="1.3392" rx="0.6696" transform="translate(-41.18551 239.74513) rotate(-20.00007)"/><rect class="cls-20" x="875.85274" y="218.14042" width="25.91747" height="1.3392" rx="0.6696" transform="translate(-39.23543 244.05296) rotate(-20.00007)"/><rect class="cls-20" x="867.92333" y="223.65589" width="19.30025" height="1.3392" rx="0.6696" transform="translate(-41.79957 240.54194) rotate(-20.00007)"/><rect class="cls-20" x="876.27162" y="221.41171" width="22.76641" height="1.3392" rx="0.6696" transform="translate(-40.42403 243.85465) rotate(-20.00007)"/><rect class="cls-20" x="869.84527" y="225.17586" width="22.76641" height="1.3392" rx="0.6696" transform="translate(-42.09901 241.8837) rotate(-20.00007)"/><path class="cls-20" d="M883.54743,221.20615h25.013a.68855.68855,0,0,1,.68855.68855v0a.68854.68854,0,0,1-.68854.68854h-25.013a.68855.68855,0,0,1-.68855-.68855v0a.68855.68855,0,0,1,.68855-.68855Z" transform="translate(-39.85367 246.71611) rotate(-20.00007)"/><path class="cls-2" d="M72.87183,225.49317c-.36789.09338-.73591.17434-1.1039.24671A14.04248,14.04248,0,0,0,88.1318,202.92681,20.48274,20.48274,0,0,1,72.87183,225.49317Z" transform="translate(-18 -73.13542)"/><path class="cls-21" d="M78.1642,200.14737a28.156,28.156,0,0,1-12.38215,16.21206c.06574.403.1458.80654.24815,1.20977a13.98965,13.98965,0,0,0,5.73773,8.17068c.368-.07237.736-.15333,1.1039-.24671a20.48274,20.48274,0,0,0,15.26-22.56636A14.02626,14.02626,0,0,0,78.1642,200.14737Z" transform="translate(-18 -73.13542)"/><path class="cls-22" d="M78.1642,200.14737a14.03539,14.03539,0,0,0-12.38215,16.21206A28.156,28.156,0,0,0,78.1642,200.14737Z" transform="translate(-18 -73.13542)"/><circle class="cls-23" cx="60.71768" cy="149.81728" r="1.60938"/><path class="cls-2" d="M77.51338,223.56028a1.60743,1.60743,0,0,1,2.19753-1.87189,1.608,1.608,0,1,0-1.63081,2.74026A1.60033,1.60033,0,0,1,77.51338,223.56028Z" transform="translate(-18 -73.13542)"/><circle class="cls-23" cx="70.17766" cy="135.94413" r="1.60938"/><circle class="cls-23" cx="67.01192" cy="143.69122" r="2.48722"/><path class="cls-2" d="M82.60116,217.43856a2.47506,2.47506,0,0,0,.91224,1.3715,20.59194,20.59194,0,0,0,2.70738-4.15437,2.48473,2.48473,0,0,0-3.61962,2.78287Z" transform="translate(-18 -73.13542)"/><path class="cls-2" d="M86.61775,209.4755a1.60673,1.60673,0,0,0,1.08012,1.13854,20.3717,20.3717,0,0,0,.533-3.14211,1.60662,1.60662,0,0,0-1.61311,2.00357Z" transform="translate(-18 -73.13542)"/><circle class="cls-24" cx="65.95369" cy="36.89084" r="7.32785"/><circle class="cls-13" cx="64.30512" cy="35.9852" r="7.32785"/><path class="cls-7" d="M76.91292,106.15845a7.32868,7.32868,0,0,1,9.17073-3.265,7.40213,7.40213,0,0,0-.73117-.45955,7.32785,7.32785,0,1,0-6.27636,13.21573A7.32867,7.32867,0,0,1,76.91292,106.15845Z" transform="translate(-18 -73.13542)"/><path class="cls-25" d="M46.48106,246.88636a8.97349,8.97349,0,1,0,8.97349,8.97349A8.97348,8.97348,0,0,0,46.48106,246.88636Zm0,16.76366a7.79017,7.79017,0,1,1,7.79017-7.79017A7.79017,7.79017,0,0,1,46.48106,263.65Z" transform="translate(-18 -73.13542)"/><circle class="cls-7" cx="28.38245" cy="182.72443" r="3.74717"/><path class="cls-26" d="M118.57955,108.06818a5.072,5.072,0,1,0,5.072,5.072A5.072,5.072,0,0,0,118.57955,108.06818Zm0,9.47511a4.40314,4.40314,0,1,1,4.40313-4.40314A4.40314,4.40314,0,0,1,118.57955,117.54329Z" transform="translate(-18 -73.13542)"/><circle class="cls-7" cx="100.52381" cy="40.00473" r="2.11797"/><path class="cls-27" d="M230.16389,165.29069a4.79177,4.79177,0,1,0,4.79177,4.79177A4.79177,4.79177,0,0,0,230.16389,165.29069Zm0,8.95166a4.15989,4.15989,0,1,1,4.15988-4.15989A4.15989,4.15989,0,0,1,230.16389,174.24235Z" transform="translate(-18 -73.13542)"/><circle class="cls-13" cx="212.11123" cy="96.94704" r="2.00096"/><path class="cls-28" d="M244.62455,194a5.75353,5.75353,0,1,0,5.75353,5.75353A5.75353,5.75353,0,0,0,244.62455,194Zm0,10.74835a4.99482,4.99482,0,1,1,4.99482-4.99482A4.99482,4.99482,0,0,1,244.62455,204.74835Z" transform="translate(-18 -73.13542)"/><circle class="cls-13" cx="226.56132" cy="126.61811" r="2.40257"/><circle class="cls-5" cx="182.98106" cy="203.01231" r="5.85227"/><circle class="cls-4" cx="87.00379" cy="196.76989" r="3.51136"/><circle class="cls-7" cx="28.3492" cy="3.51136" r="3.51136"/><circle class="cls-13" cx="19.89773" cy="120.30019" r="2.73106"/><circle class="cls-3" cx="5.46212" cy="43.75852" r="5.46212"/><circle class="cls-5" cx="192.23485" cy="79.20549" r="2.34091"/></g></g></svg>